<svg xmlns:xlink="http://www.w3.org/1999/xlink" xmlns="http://www.w3.org/2000/svg" width="5000" height="790.8697328778014" viewBox="0 0 375.3888821094425 59.37674098383825" class="css-1j8o68f"><defs id="SvgjsDefs2070"><linearGradient id="SvgjsLinearGradient2075"><stop id="SvgjsStop2076" stop-color="#6d7cff" offset="0"></stop><stop id="SvgjsStop2077" stop-color="#ff51ff" offset="1"></stop></linearGradient><linearGradient id="SvgjsLinearGradient2075"><stop id="SvgjsStop2076" stop-color="#6d7cff" offset="0"></stop><stop id="SvgjsStop2077" stop-color="#ff51ff" offset="1"></stop></linearGradient><linearGradient id="SvgjsLinearGradient2075"><stop id="SvgjsStop2076" stop-color="#6d7cff" offset="0"></stop><stop id="SvgjsStop2077" stop-color="#ff51ff" offset="1"></stop></linearGradient></defs><g id="SvgjsG2071" featurekey="nRdZyp-0" transform="matrix(2.581597434079924,0,0,2.581597434079924,4.616255940341813e-7,-10.326389120818904)" fill="url(&quot;#SvgjsLinearGradient2075&quot;)"><path xmlns="http://www.w3.org/2000/svg" d="M17.063 0l-.031.156-5 22-.188.844h3.094l.031-.156 5-22 .188-.844h-3.094zm-7.063 3l-.406.313-9 7-.594.469v1.438l.594.469 9 7 .406.313v-3.781l-6.063-4.719 6.063-4.719v-3.781zm12 0v3.781l6.063 4.719-6.063 4.719v3.781l.406-.313 9-7 .594-.469v-1.438l-.594-.469-9-7-.406-.313z" transform="translate(0 4)" fill="url(&quot;#SvgjsLinearGradient2075&quot;)"></path></g><g id="SvgjsG2072" featurekey="Q4qmbg-0" transform="matrix(2.5566707568780562,0,0,2.5566707568780562,105.39219587674901,-9.879825463027528)" fill="#111111"><path d="M7.5 10.26 l-0.4 2.22 c-0.74 -0.32 -0.88 -0.26 -1.22 -0.26 c-1.2 0 -1.9 0.64 -1.9 2.22 l0 5.56 l-2.96 0 l0 -9.88 l2.96 0 l0 0.88 c0.38 -0.68 1.42 -1.02 2.08 -1.02 c0.62 0 0.98 0.02 1.44 0.28 z M17.727708333333332 15.08 l0 0.66 l-7.04 0 c0 1.16 1.18 1.98 2.16 1.98 c0.96 0 1.84 -0.38 2.3 -1.22 l1.98 1.82 c-0.8 1.08 -2.02 1.84 -4.28 1.84 c-3.24 0 -5.22 -2.16 -5.22 -5.08 s1.92 -5.1 5.04 -5.1 s5.06 2.14 5.06 5.1 z M10.747708333333332 13.86 l3.88 0 c-0.16 -0.94 -0.84 -1.44 -1.96 -1.44 c-1.08 0 -1.74 0.58 -1.92 1.44 z M25.615416666666665 10.12 l2.96 0 l0 9.58 c0 2.92 -2.14 5.28 -5.22 5.28 c-1.7 0 -2.98 -0.78 -4.1 -2.02 l2.1 -1.9 c0.62 0.92 1.18 1.48 2 1.48 c1.4 0 2.24 -1.54 2.24 -3.22 c-0.36 0.48 -1.42 0.82 -2.04 0.82 c-2.88 0 -5 -2.16 -5 -5.08 s2.12 -5.1 5 -5.1 c0.68 0 1.74 0.36 2.06 0.82 l0 -0.66 z M23.755416666666665 17.92 c1.34 0 2.26 -1.54 2.26 -2.86 c0 -1.34 -0.9 -2.86 -2.26 -2.86 c-1.22 0 -2.24 1.28 -2.24 2.86 c0 1.56 1.02 2.86 2.24 2.86 z M33.183125 10.12 l0 9.88 l-2.96 0 l0 -9.88 l2.96 0 z M33.263124999999995 7.279999999999999 c0 0.84 -0.68 1.5 -1.58 1.5 c-0.86 0 -1.56 -0.66 -1.56 -1.5 c0 -0.82 0.7 -1.46 1.56 -1.46 c0.9 0 1.58 0.64 1.58 1.46 z M37.330833333333324 13.24 c0 1.18 5 0.62 5 3.74 c0 2.04 -1.8 3.18 -4.04 3.18 c-1.42 0 -2.84 -0.7 -3.96 -1.82 l1.94 -1.94 c0.56 0.68 1.36 1.2 2.02 1.26 s1.22 -0.22 1.32 -0.52 c0.24 -0.76 -1.14 -0.8 -1.56 -0.92 c-1.58 -0.48 -3.42 -1.14 -3.42 -3.1 c0 -2.34 2.44 -3.14 3.66 -3.14 c1.4 0 2.82 0.64 3.96 1.8 l-1.92 1.92 c-0.52 -0.68 -1.42 -1.22 -2.04 -1.22 c-0.32 0 -0.96 0.12 -0.96 0.76 z M47.058541666666656 15.8 c0 0.72 -0.02 1.92 1.08 1.92 c0.54 0 0.88 -0.22 1.26 -0.5 l0 2.44 c-0.46 0.26 -1.02 0.5 -1.62 0.5 c-2.54 0 -3.68 -1.08 -3.68 -4.36 l0 -3.24 l-1.1 0 l0 -2.44 l1.1 0 l0 -2.84 l2.96 0 l0 2.84 l2.34 0 l0 2.44 l-2.34 0 l0 3.24 z M57.74624999999999 10.26 l-0.4 2.22 c-0.74 -0.32 -0.88 -0.26 -1.22 -0.26 c-1.2 0 -1.9 0.64 -1.9 2.22 l0 5.56 l-2.96 0 l0 -9.88 l2.96 0 l0 0.88 c0.38 -0.68 1.42 -1.02 2.08 -1.02 c0.62 0 0.98 0.02 1.44 0.28 z M64.81395833333332 10.12 l3.08 0 s-2.56 6.02 -4.06 9.6 c-1.34 3.18 -2.32 5.1 -4.46 5.1 c-0.88 0 -1.94 -0.86 -2.24 -1.1 l0.86 -2.44 c0.4 0.38 0.92 0.62 1.34 0.62 c1.02 0 1.56 -2.06 1.9 -3.26 l-3.62 -8.52 l3.08 0 l2.06 4.94 c0.66 -1.6 1.42 -3.42 2.06 -4.94 z M76.26937499999998 13.04 l-2.2 -1.26 c1.1 -1.24 2.58 -1.82 4.12 -1.82 c2.96 0 4.16 1.62 4.16 3.14 l0 6.9 l-2.96 0 l0 -0.7 c-0.46 0.48 -1.28 0.84 -2.2 0.84 c-2.7 0 -3.74 -1.2 -3.74 -3.04 c0 -2.08 1.68 -3.48 4.4 -3.48 l1.54 0 c0 -0.74 -0.56 -1.22 -1.4 -1.22 c-0.86 0 -1.28 0.16 -1.72 0.64 z M79.38937499999997 16.740000000000002 l0 -0.88 l-1.74 0 c-0.78 0 -1.36 0.54 -1.24 1.3 c0.08 0.54 0.56 0.76 1.24 0.76 c1.3 0 1.74 -0.74 1.74 -1.18 z M94.23708333333332 15.08 c0 2.92 -1.94 5.08 -4.84 5.08 c-0.6 0 -1.78 -0.36 -2.24 -0.82 l0 5.3 l-2.96 0 l0 -14.52 l2.96 0 l0 0.7 c0.42 -0.5 1.18 -0.84 2.04 -0.84 c2.9 0 5.04 2.18 5.04 5.1 z M91.25708333333331 15.08 c0 -1.58 -1.02 -2.86 -2.26 -2.86 c-0.76 0 -1.5 0.56 -1.9 1.36 c-0.18 0.4 -0.32 0.96 -0.32 1.5 c0 0.56 0.12 1.06 0.32 1.48 c0.42 0.82 1.12 1.36 1.9 1.36 c1.24 0 2.26 -1.28 2.26 -2.84 z M105.60479166666664 15.08 c0 2.92 -1.94 5.08 -4.84 5.08 c-0.6 0 -1.78 -0.36 -2.24 -0.82 l0 5.3 l-2.96 0 l0 -14.52 l2.96 0 l0 0.7 c0.42 -0.5 1.18 -0.84 2.04 -0.84 c2.9 0 5.04 2.18 5.04 5.1 z M102.62479166666664 15.08 c0 -1.58 -1.02 -2.86 -2.26 -2.86 c-0.76 0 -1.5 0.56 -1.9 1.36 c-0.18 0.4 -0.32 0.96 -0.32 1.5 c0 0.56 0.12 1.06 0.32 1.48 c0.42 0.82 1.12 1.36 1.9 1.36 c1.24 0 2.26 -1.28 2.26 -2.84 z" fill="#111111"></path></g></svg>